<?xml version="1.0" encoding="UTF-8"?><svg xmlns="http://www.w3.org/2000/svg" xmlns:xlink="http://www.w3.org/1999/xlink" viewBox="0 0 1024 1024"><defs><style>.cls-1{fill:url(#linear-gradient);}.cls-1,.cls-2,.cls-3,.cls-4,.cls-5{stroke-width:0px;}.cls-2{fill:#e6e7e7;mix-blend-mode:multiply;}.cls-6{isolation:isolate;}.cls-3{fill:url(#linear-gradient-2);}.cls-4{fill:#24bbb1;}.cls-5{fill:#026aa4;}</style><linearGradient id="linear-gradient" x1="32" y1="515.13" x2="466.99" y2="515.13" gradientUnits="userSpaceOnUse"><stop offset=".12" stop-color="#6ccbda"/><stop offset=".46" stop-color="#1e90c8"/><stop offset=".6" stop-color="#1e90c8"/><stop offset=".93" stop-color="#6ccbda"/></linearGradient><linearGradient id="linear-gradient-2" x1="-1655.98" y1="-335.92" x2="-1221.49" y2="-335.92" gradientTransform="translate(-653.47 150.27) rotate(-178.94)" xlink:href="#linear-gradient"/></defs><g class="cls-6"><g id="Main"><path class="cls-1" d="m292.42,759.85c-56.39-68.78-87.45-164.9-87.45-270.64s30.62-192.2,88.55-254.16c25.94-27.74,57.22-50.07,92.98-66.36l20.71-9.44-23.51,5.09c-109.15,23.62-200,70.96-262.72,136.91-57.39,60.34-89,134.92-89,209.99,0,89.66,39.26,170.91,113.54,234.98,73.47,63.37,175.58,105.31,295.31,121.29l26.14,3.49-24.09-8.05c-60.28-20.15-110.91-54.84-150.48-103.1Z"/><path class="cls-3" d="m740.5,267.16c55.01,69.75,84.15,166.38,82.05,272.11-2.08,104.3-34.44,191.64-93.6,252.58-26.49,27.29-58.21,49.07-94.29,64.73l-20.9,9.08,23.6-4.68c109.6-21.72,201.38-67.48,265.4-132.33,58.58-59.34,91.66-133.35,93.16-208.41,1.78-89.64-35.86-171.56-108.85-236.91-72.2-64.63-173.46-108.33-292.85-126.38l-26.07-3.94,23.92,8.47c59.87,21.19,109.8,56.75,148.4,105.69Z"/><path class="cls-5" d="m686.5,396.12h-142.1l-138.99-121.39c29.43-19.77,66.25-31.44,106.25-31.44,96.59,0,174.84,68.43,174.84,152.83Z"/><path class="cls-5" d="m622.58,769.7c-29.43,19.71-66.19,31.38-106.19,31.38-96.59,0-174.9-68.43-174.9-152.83h142.1l138.99,121.45Z"/><path class="cls-4" d="m693.32,679.46c-7.96,26-23.68,50.57-47.01,70.95l-264.66-231.27c-47.86-41.87-63.52-101.2-46.88-154.48,8.02-25.9,23.62-50.36,46.88-70.68l264.66,231.27c47.86,41.82,63.52,100.99,47.01,154.21Z"/><path class="cls-2" d="m693.32,679.46c-7.96,26-23.68,50.57-47.01,70.95l-264.66-231.27c-47.86-41.87-63.52-101.2-46.88-154.48,77.8,68.56,259.38,228.56,358.55,314.79Z"/></g></g></svg>